<?xml version="1.0" encoding="UTF-8"?>
<svg width="24px" height="24px" viewBox="0 0 24 24" version="1.1" xmlns="http://www.w3.org/2000/svg" xmlns:xlink="http://www.w3.org/1999/xlink">
    <title>ic_feedback</title>
    <g id="文档0705" stroke="none" stroke-width="1" fill="none" fill-rule="evenodd">
        <g id="09昇腾文档-详情页2" transform="translate(-1854.000000, -1628.000000)">
            <g id="编组-20" transform="translate(1836.000000, 1618.000000)">
                <g id="ic_feedback" transform="translate(18.000000, 10.000000)">
                    <rect id="矩形" x="0" y="0" width="24" height="24"></rect>
                    <path d="M21,12.5054314 L21,19 C21,19.5522847 20.5522847,20 20,20 L5,20 C4.44771525,20 4,19.5522847 4,19 L4,4 C4,3.44771525 4.44771525,3 5,3 L11.5828117,3" id="路径" stroke="#000000" stroke-width="1.4" stroke-linecap="round"></path>
                    <g id="编组-4" transform="translate(15.500000, 8.500000) rotate(-45.000000) translate(-15.500000, -8.500000) translate(9.000000, 7.000000)" stroke="#000000" stroke-width="1.4">
                        <path d="M3.23606798,0 L12.9,0 C12.9552285,3.73248154e-18 13,0.044771525 13,0.1 L13,2.9 C13,2.95522847 12.9552285,3 12.9,3 L3.23606798,3 C3.08082288,3 2.92770982,2.96385491 2.78885438,2.89442719 L0.178885438,1.58944272 C0.129487588,1.56474379 0.109465154,1.50467649 0.134164079,1.45527864 C0.143840449,1.4359259 0.159532698,1.42023365 0.178885438,1.41055728 L2.78885438,0.105572809 C2.92770982,0.0361450918 3.08082288,-1.85886108e-15 3.23606798,0 Z" id="矩形"></path>
                        <line x1="10" y1="0.5" x2="10" y2="2.5" id="直线-2" stroke-linecap="square"></line>
                    </g>
                </g>
            </g>
        </g>
    </g>
</svg>